<svg xmlns="http://www.w3.org/2000/svg" id="Checkmark" enable-background="new 0 0 128 128" version="1.1" viewBox="0 0 128 128" xml:space="preserve"><rect width="68" height="83" x="11" y="17" fill="#ffffff" class="colorffffff svgShape"></rect><rect width="68" height="83" x="11" y="17" fill="none" stroke="#565656" stroke-linecap="round" stroke-linejoin="round" stroke-miterlimit="10" stroke-width="2" class="colorStroke242c88 svgStroke"></rect><path fill="#8883d6" d="M33 46H23c-1.1 0-2-.9-2-2V34c0-1.1.9-2 2-2h10c1.1 0 2 .9 2 2v10C35 45.1 34.1 46 33 46zM32.8 66H23c-1.1 0-2-.9-2-2V54c0-1.1.9-2 2-2h10c1.1 0 2 .9 2 2v9.8C35 65 34 66 32.8 66zM33 87H23c-1.1 0-2-.9-2-2V75c0-1.1.9-2 2-2h10c1.1 0 2 .9 2 2v10C35 86.1 34.1 87 33 87z" class="color83d689 svgShape"></path><path fill="none" stroke="#565656" stroke-linecap="round" stroke-linejoin="round" stroke-miterlimit="10" stroke-width="2" d="M33 46H23c-1.1 0-2-.9-2-2V34c0-1.1.9-2 2-2h10c1.1 0 2 .9 2 2v10C35 45.1 34.1 46 33 46zM32.8 66H23c-1.1 0-2-.9-2-2V54c0-1.1.9-2 2-2h10c1.1 0 2 .9 2 2v9.8C35 65 34 66 32.8 66zM33 87H23c-1.1 0-2-.9-2-2V75c0-1.1.9-2 2-2h10c1.1 0 2 .9 2 2v10C35 86.1 34.1 87 33 87z" class="colorStroke242c88 svgStroke"></path><path fill="#565656" d="M79,101V24H28c-1.1,0-2,0.9-2,2v75H79z" opacity=".2" class="color242c88 svgShape"></path><rect width="68" height="83" x="31" y="29" fill="#ffffff" class="colorffffff svgShape"></rect><rect width="68" height="83" x="31" y="29" fill="none" stroke="#565656" stroke-linecap="round" stroke-linejoin="round" stroke-miterlimit="10" stroke-width="2" class="colorStroke242c88 svgStroke"></rect><line x1="63" x2="75" y1="53" y2="53" fill="none" stroke="#565656" stroke-linecap="round" stroke-linejoin="round" stroke-miterlimit="10" stroke-width="2" opacity=".2" class="colorStroke242c88 svgStroke"></line><line x1="63" x2="87" y1="48" y2="48" fill="none" stroke="#565656" stroke-linecap="round" stroke-linejoin="round" stroke-miterlimit="10" stroke-width="2" opacity=".2" class="colorStroke242c88 svgStroke"></line><path fill="#8883d6" d="M54,58H44c-1.1,0-2-0.9-2-2V46c0-1.1,0.9-2,2-2h10c1.1,0,2,0.9,2,2v10C56,57.1,55.1,58,54,58z" class="color83d689 svgShape"></path><polyline fill="none" stroke="#242c88" stroke-linecap="round" stroke-linejoin="round" stroke-miterlimit="10" stroke-width="2" points="45.3 51.7 48.2 54.4 53.9 48.6"></polyline><line x1="63" x2="75" y1="74" y2="74" fill="none" stroke="#565656" stroke-linecap="round" stroke-linejoin="round" stroke-miterlimit="10" stroke-width="2" opacity=".2" class="colorStroke242c88 svgStroke"></line><line x1="63" x2="87" y1="68" y2="68" fill="none" stroke="#565656" stroke-linecap="round" stroke-linejoin="round" stroke-miterlimit="10" stroke-width="2" opacity=".2" class="colorStroke242c88 svgStroke"></line><path fill="#8883d6" d="M54,78H44c-1.1,0-2-0.9-2-2V66c0-1.1,0.9-2,2-2h9.8c1.2,0,2.2,1,2.2,2.2V76C56,77.1,55.1,78,54,78z" class="color83d689 svgShape"></path><polyline fill="none" stroke="#242c88" stroke-linecap="round" stroke-linejoin="round" stroke-miterlimit="10" stroke-width="2" points="45.3 71.9 48.2 74.6 53.9 68.9"></polyline><line x1="63" x2="75" y1="94" y2="94" fill="none" stroke="#565656" stroke-linecap="round" stroke-linejoin="round" stroke-miterlimit="10" stroke-width="2" opacity=".2" class="colorStroke242c88 svgStroke"></line><line x1="63" x2="87" y1="89" y2="89" fill="none" stroke="#565656" stroke-linecap="round" stroke-linejoin="round" stroke-miterlimit="10" stroke-width="2" opacity=".2" class="colorStroke242c88 svgStroke"></line><path fill="#8883d6" d="M54,98H44c-1.1,0-2-0.9-2-2V86c0-1.1,0.9-2,2-2h10c1.1,0,2,0.9,2,2v10C56,97.1,55.1,98,54,98z" class="color83d689 svgShape"></path><path fill="none" stroke="#565656" stroke-linecap="round" stroke-linejoin="round" stroke-miterlimit="10" stroke-width="2" d="M54 58H44c-1.1 0-2-.9-2-2V46c0-1.1.9-2 2-2h10c1.1 0 2 .9 2 2v10C56 57.1 55.1 58 54 58zM54 78H44c-1.1 0-2-.9-2-2V66c0-1.1.9-2 2-2h9.8c1.2 0 2.2 1 2.2 2.2V76C56 77.1 55.1 78 54 78zM54 98H44c-1.1 0-2-.9-2-2V86c0-1.1.9-2 2-2h10c1.1 0 2 .9 2 2v10C56 97.1 55.1 98 54 98z" class="colorStroke242c88 svgStroke"></path><polygon fill="#565656" points="99 57.6 65.2 77.5 53.6 94.9 74.4 93.1 99 78.6" opacity=".2" class="color242c88 svgShape"></polygon><g fill="#252525" class="color000000 svgShape"><polygon fill="#ffffff" points="111.4 50.1 73.8 87.7 54.1 94.6 61 74.9 98.6 37.3" class="colorffffff svgShape"></polygon><rect width="53.2" height="18.1" x="59.6" y="53.5" fill="#838383" transform="rotate(-45.001 86.22 62.528)" class="colorffc408 svgShape"></rect><rect width="53.2" height="5.3" x="64.1" y="64.4" fill="#565656" opacity=".2" transform="rotate(-45.001 90.734 67.042)" class="color242c88 svgShape"></rect><polygon fill="#6c63ff" points="57.1 86 54.1 94.4 62.5 91.4" class="color5e61a3 svgShape"></polygon><polygon fill="none" stroke="#565656" stroke-linecap="round" stroke-linejoin="round" stroke-miterlimit="10" stroke-width="2" points="111.4 50.1 73.8 87.7 54.1 94.6 61 74.9 98.6 37.3" class="colorStroke242c88 svgStroke"></polygon><path fill="#857ef3" d="M111.4,50.1l6-6c1.7-1.7,1.7-4.4,0-6l-6.8-6.8c-1.7-1.7-4.4-1.7-6,0l-6,6L111.4,50.1z" class="colorf3877e svgShape"></path><path fill="none" stroke="#565656" stroke-linecap="round" stroke-linejoin="round" stroke-miterlimit="10" stroke-width="2" d="M111.4,50.1l6-6c1.7-1.7,1.7-4.4,0-6l-6.8-6.8c-1.7-1.7-4.4-1.7-6,0l-6,6L111.4,50.1z" class="colorStroke242c88 svgStroke"></path><line x1="80.6" x2="106.9" y1="73.4" y2="47.1" fill="none" stroke="#565656" stroke-linecap="round" stroke-linejoin="round" stroke-miterlimit="10" stroke-width="2" class="colorStroke242c88 svgStroke"></line><line x1="70" x2="76.1" y1="84" y2="77.9" fill="none" stroke="#565656" stroke-linecap="round" stroke-linejoin="round" stroke-miterlimit="10" stroke-width="2" class="colorStroke242c88 svgStroke"></line><rect width="7.4" height="18.1" x="100.9" y="35.1" fill="#ffffff" transform="rotate(-45.001 104.652 44.097)" class="colorffffff svgShape"></rect><rect width="7.4" height="18.1" x="100.9" y="35.1" fill="#565656" opacity=".2" transform="rotate(-45.001 104.652 44.097)" class="color242c88 svgShape"></rect><rect width="7.4" height="18.1" x="100.9" y="35.1" fill="none" stroke="#565656" stroke-linecap="round" stroke-linejoin="round" stroke-miterlimit="10" stroke-width="2" transform="rotate(-45.001 104.652 44.097)" class="colorStroke242c88 svgStroke"></rect></g></svg>